<svg width="16" height="16" viewBox="0 0 16 16" fill="none" xmlns="http://www.w3.org/2000/svg">
<path d="M0.29357 13.9634L6.42136 7.8356L0.292864 1.7071C0.105327 1.51957 -2.94732e-05 1.26521 -2.95575e-05 0.999998C-2.96524e-05 0.734781 0.105327 0.480427 0.292864 0.292891C0.4804 0.105354 0.734754 -2.28325e-06 0.99997 -2.18842e-06C1.26519 -2.10413e-06 1.51954 0.105355 1.70708 0.292891L7.83557 6.42139L13.9641 0.292891C14.1516 0.105355 14.406 -2.10413e-06 14.6712 -2.18842e-06C14.9364 -2.28325e-06 15.1907 0.105354 15.3783 0.292891C15.5658 0.480427 15.6712 0.734781 15.6712 0.999998C15.6712 1.26521 15.5658 1.51957 15.3783 1.7071L9.25049 7.83489L15.379 13.9634C15.5665 14.1509 15.6719 14.4053 15.6719 14.6705C15.6719 14.9357 15.5665 15.1901 15.379 15.3776C15.1914 15.5651 14.9371 15.6705 14.6719 15.6705C14.4067 15.6705 14.1523 15.5651 13.9648 15.3776L7.83628 9.24911L1.70849 15.3769C1.52095 15.5644 1.2666 15.6698 1.00138 15.6698C0.736168 15.6698 0.481814 15.5644 0.294277 15.3769C0.10674 15.1894 0.00138468 14.935 0.00138468 14.6698C0.00138468 14.4046 0.106034 14.1509 0.29357 13.9634Z" fill="#454F63"/>
</svg>
