<svg width="18" height="25" viewBox="0 0 18 25" fill="none" xmlns="http://www.w3.org/2000/svg">
<path d="M4.57397 5.36298C4.52726 5.31651 4.49017 5.26128 4.46487 5.20044C4.43958 5.1396 4.42657 5.07437 4.42657 5.00848C4.42657 4.9426 4.43958 4.87735 4.46487 4.81651C4.49017 4.75568 4.52726 4.70044 4.57397 4.65398L8.79095 0.488983L13.108 4.64998C13.1554 4.69594 13.1933 4.7508 13.2195 4.8114C13.2457 4.87201 13.2597 4.93718 13.2607 5.0032C13.2617 5.06923 13.2498 5.13479 13.2254 5.19618C13.2011 5.25757 13.1649 5.31357 13.119 5.36098C13.073 5.40838 13.0182 5.44628 12.9576 5.47249C12.8969 5.4987 12.8318 5.51271 12.7657 5.51373C12.6997 5.51475 12.6341 5.50276 12.5728 5.47844C12.5114 5.45412 12.4554 5.41794 12.408 5.37198L9.29297 2.37198V15.187C9.29297 15.3196 9.24028 15.4468 9.14651 15.5405C9.05275 15.6343 8.92558 15.687 8.79297 15.687C8.66036 15.687 8.53319 15.6343 8.43942 15.5405C8.34565 15.4468 8.29297 15.3196 8.29297 15.187V2.38998L5.27795 5.36798C5.18366 5.46014 5.05678 5.51133 4.92493 5.51039C4.79308 5.50945 4.66695 5.45647 4.57397 5.36298ZM12.474 7.66298C12.3414 7.66298 12.2142 7.71566 12.1204 7.80943C12.0267 7.9032 11.974 8.03037 11.974 8.16298C11.974 8.29559 12.0267 8.42276 12.1204 8.51653C12.2142 8.61029 12.3414 8.66298 12.474 8.66298H16.25V22.992H1.34998V8.66498H5.31497C5.44758 8.66498 5.57475 8.61231 5.66852 8.51854C5.76229 8.42477 5.81497 8.29759 5.81497 8.16498C5.81497 8.03237 5.76229 7.9052 5.66852 7.81143C5.57475 7.71766 5.44758 7.66498 5.31497 7.66498H0.349976V24H17.25V7.66197L12.474 7.66298Z" fill="white" stroke="white" stroke-width="0.7"/>
</svg>
