<svg width="25" height="23" viewBox="0 0 25 23" fill="none" xmlns="http://www.w3.org/2000/svg">
<path d="M12.364 22.424C12.1926 22.4244 12.0251 22.3724 11.884 22.275C3.886 16.8 0 11.678 0 6.60601C0.0021171 4.85464 0.698784 3.17561 1.93719 1.9372C3.1756 0.698793 4.85463 0.00212584 6.606 8.7351e-06C7.73139 -0.0015099 8.84091 0.265535 9.84236 0.778959C10.8438 1.29238 11.7083 2.03736 12.364 2.95201C13.0193 2.0372 13.8836 1.29208 14.8849 0.778634C15.8862 0.265183 16.9957 -0.00176026 18.121 8.7351e-06C19.8724 0.00212584 21.5514 0.698793 22.7898 1.9372C24.0282 3.17561 24.7249 4.85464 24.727 6.60601C24.727 11.678 20.84 16.806 12.844 22.275C12.7029 22.3724 12.5354 22.4244 12.364 22.424ZM6.606 1.70001C5.30534 1.7016 4.0584 2.21899 3.13869 3.1387C2.21898 4.05841 1.70159 5.30534 1.7 6.60601C1.7 10.917 5.288 15.606 12.365 20.541C19.441 15.6 23.028 10.917 23.028 6.60601C23.0261 5.30525 22.5085 4.05832 21.5887 3.13864C20.6688 2.21895 19.4218 1.7016 18.121 1.70001C17.0572 1.699 16.017 2.01339 15.1318 2.60344C14.2467 3.19348 13.5563 4.0327 13.148 5.01501C13.0836 5.16992 12.9748 5.30228 12.8353 5.3954C12.6957 5.48851 12.5318 5.53821 12.364 5.53821C12.1962 5.53821 12.0323 5.48851 11.8927 5.3954C11.7532 5.30228 11.6444 5.16992 11.58 5.01501C11.1714 4.0327 10.4808 3.19352 9.59552 2.6035C8.71022 2.01347 7.6699 1.69907 6.606 1.70001Z" fill="white"/>
</svg> 

