<svg width="25" height="23" viewBox="0 0 25 23" fill="none" xmlns="http://www.w3.org/2000/svg">
  <path
    d="M12.364 22.424C12.1926 22.4244 12.0251 22.3724 11.884 22.275C3.886 16.8 0 11.678 0 6.60601C0.0021171 4.85464 0.698784 3.17561 1.93719 1.9372C3.1756 0.698793 4.85463 0.00212584 6.606 8.7351e-06C7.73139 -0.0015099 8.84091 0.265535 9.84236 0.778959C10.8438 1.29238 11.7083 2.03736 12.364 2.95201C13.0193 2.0372 13.8836 1.29208 14.8849 0.778634C15.8862 0.265183 16.9957 -0.00176026 18.121 8.7351e-06C19.8724 0.00212584 21.5514 0.698793 22.7898 1.9372C24.0282 3.17561 24.7249 4.85464 24.727 6.60601C24.727 11.678 20.84 16.806 12.844 22.275C12.7029 22.3724 12.5354 22.4244 12.364 22.424Z"
    fill="red"
  />
</svg>