<svg width="15" height="14" viewBox="0 0 15 14" fill="none" xmlns="http://www.w3.org/2000/svg">
<path d="M14.2988 5.01275C14.2719 4.94325 14.2266 4.88237 14.1678 4.83658C14.1089 4.79079 14.0388 4.76182 13.9648 4.75275L9.51781 4.13275L7.53881 0.20475C7.49737 0.141829 7.44096 0.0901818 7.37464 0.0544449C7.30831 0.0187081 7.23415 0 7.15881 0C7.08347 0 7.00931 0.0187081 6.94298 0.0544449C6.87666 0.0901818 6.82025 0.141829 6.77881 0.20475L4.79881 4.13275L0.35481 4.75275C0.280825 4.76182 0.210687 4.79079 0.151869 4.83658C0.0930505 4.88237 0.0477555 4.94325 0.0208097 5.01275C-0.00319684 5.08097 -0.00651266 5.15476 0.0112787 5.22486C0.02907 5.29496 0.0671754 5.35824 0.12081 5.40675L3.35781 8.44675L2.59881 12.7698C2.58677 12.843 2.59668 12.9182 2.62729 12.9858C2.65789 13.0534 2.70783 13.1105 2.77081 13.1498C2.83658 13.192 2.91229 13.2163 2.99037 13.2201C3.06846 13.224 3.14619 13.2073 3.21581 13.1718L7.15881 11.1558L11.1048 13.1718C11.1745 13.2072 11.2522 13.2239 11.3302 13.22C11.4083 13.2161 11.484 13.1919 11.5498 13.1498C11.6128 13.1105 11.6627 13.0534 11.6933 12.9858C11.7239 12.9182 11.7338 12.843 11.7218 12.7698L10.9638 8.44675L14.1988 5.40675C14.2524 5.35824 14.2905 5.29496 14.3083 5.22486C14.3261 5.15476 14.3228 5.08097 14.2988 5.01275Z" fill="#FFB900"/>
</svg>
